<?xml version="1.0" encoding="UTF-8" standalone="no"?>
<svg
   viewBox="0 0 8048 4024"
   version="1.1"
   id="svg1"
   width="8048"
   height="4024"
   xmlns="http://www.w3.org/2000/svg"
   xmlns:svg="http://www.w3.org/2000/svg"
   xmlns:rdf="http://www.w3.org/1999/02/22-rdf-syntax-ns#"
   xmlns:cc="http://creativecommons.org/ns#"
   xmlns:dc="http://purl.org/dc/elements/1.1/">
  <defs
     id="defs1">
    <style
       id="style1">.cls-1{fill:#0d0d0d;}.cls-2{fill:#f6f6f5;stroke:#0d0d0d;stroke-miterlimit:10;stroke-width:20px;}</style>
  </defs>
  <title
     id="title1">fleur de lys sombre</title>
  <g
     id="Calque_4"
     data-name="Calque 4"
     transform="scale(2,1)">
    <rect
       class="cls-1"
       width="4024"
       height="4024"
       id="rect1"
       x="0"
       y="0" />
  </g>
  <g
     id="Calque_2"
     data-name="Calque 2"
     transform="translate(2001,4.5558737)">
    <path
       class="cls-2"
       d="m 3345.74,2294.56 c -61.83,-95.25 -164.3,-123.4 -194.74,-130.56 0,0 -115.6,-12.34 -140.6,94.66 -16,68.61 44.18,82.64 84.6,69.34 15,-4.93 18.2,16.17 9,29 -28.05,39.14 -95.36,64.7 -194,-84 -78.41,-118.22 -308.44,-171.08 -512.75,-118.47 a 2,2 0 0 1 -1.3,-3.76 c 108,-47.73 218.12,-108.86 300.05,-277.77 146,-301 350.83,-329.18 417,-221 63,103 -99,212 -99,212 0,0 322.49,-25 319,-430 -1,-116 -103,-241 -166,-276 -59.09,-32.83 -128.37,-58.68 -223.25,-56.56 -117.07,2.62 -229,47.92 -316.61,125.62 C 2251.73,1560 2235,2107 2235,2107 c 0,0 -71.5,-331.31 99.4,-674.34 C 2539,1022 2300,697 2200,589 2115,492 2000,351 2000,351 c 0,0 -115,141 -200,238 -100,108 -339,433 -134.4,843.66 170.9,343 99.4,674.34 99.4,674.34 0,0 -16.73,-547 -392.14,-879.94 -87.62,-77.7 -199.54,-123 -316.61,-125.62 -94.88,-2.12 -164.16,23.73 -223.25,56.56 -63,35 -165,160 -166,276 -3.49,405 319,430 319,430 0,0 -162,-109 -99,-212 66.17,-108.18 271,-80 417,221 81.93,168.91 192.07,230 300,277.77 a 2,2 0 0 1 -1.3,3.76 c -204.31,-52.61 -434.34,0.25 -512.75,118.47 -98.64,148.7 -166,123.14 -194,84 -9.2,-12.83 -6,-33.93 9,-29 40.42,13.3 100.63,-0.73 84.6,-69.34 C 964.6,2151.66 849,2164 849,2164 818.56,2171.16 716.09,2199.31 654.26,2294.56 566.51,2428.35 627,2591 640,2615 c 6.87,12.68 283.67,468.7 468,104 93,-184 204.84,-214.82 278,-198 77.79,17.89 120.72,82.3 100.66,159.56 C 1473.51,2731.22 1459,2786 1459,2786 c 119.92,92.53 282.76,-43.48 362.59,-106.7 18,-14.29 44.57,-0.14 42.55,22.79 C 1827,3122 1525,3220 1525,3220 c 188,219 383,-28 383,-28 6,244 92,457 92,457 0,0 86,-213 92,-457 0,0 195,247 383,28 0,0 -302,-98 -339.14,-517.91 -2,-22.93 24.51,-37.08 42.55,-22.79 79.83,63.22 242.67,199.23 362.59,106.7 0,0 -14.51,-54.78 -27.66,-105.44 -20.06,-77.26 22.87,-141.67 100.66,-159.56 73.16,-16.82 185,14 278,198 184.33,364.7 461.13,-91.32 468,-104 13,-24 73.49,-186.65 -14.26,-320.44 z M 1801,2250.87 c 50.86,38 95.21,90.2 128,172.13 -28.66,-71.53 -73.5,-128.41 -128,-172.13 z M 2071,2423 c 32.82,-81.93 77.17,-134.11 128,-172.13 -54.53,43.72 -99.37,100.6 -128,172.13"
       transform="translate(23,2)"
       id="path1" />
  </g>
  <metadata
     id="metadata1">
    <rdf:RDF>
      <cc:Work
         rdf:about="">
        <dc:title>fleur de lys sombre</dc:title>
      </cc:Work>
    </rdf:RDF>
  </metadata>
</svg>
